<?xml version="1.0" encoding="UTF-8" standalone="no"?>
<!-- Created with Inkscape (http://www.inkscape.org/) -->

<svg
   width="210mm"
   height="297mm"
   viewBox="0 0 210 297"
   version="1.1"
   id="svg5"
   xmlns="http://www.w3.org/2000/svg"
   xmlns:svg="http://www.w3.org/2000/svg">
  <defs
     id="defs2" />
  <g
     id="layer1">
    <rect
       style="fill:#00ff00;stroke-width:0.264583"
       id="rect217"
       width="95.830048"
       height="91.806656"
       x="57.424877"
       y="158.74138" />
    <path
       style="fill:none;stroke:#000000;stroke-width:0.264583px;stroke-linecap:butt;stroke-linejoin:miter;stroke-opacity:1"
       d="m 57.424878,158.74138 c 0,0 -9.837506,-2.40531 -14.264781,-4.75493 -4.071074,-2.16058 -7.720807,-5.14673 -10.972905,-8.41256 -5.402765,-5.42557 -9.36899,-12.11521 -13.899015,-18.28818 -2.121485,-2.8909 -6.21798,-8.77832 -6.21798,-8.77832 l -5.1206896,4.75492 c 0,0 5.2585516,11.09845 8.7783246,16.0936 3.481735,4.94117 7.58567,9.48027 12.070198,13.53325 4.468993,4.03894 9.178429,8.04601 14.630542,10.60714 4.442962,2.08708 14.264778,3.65764 14.264778,3.65764"
       id="path604" />
    <path
       style="fill:none;stroke:#000000;stroke-width:0.264583px;stroke-linecap:butt;stroke-linejoin:miter;stroke-opacity:1"
       d="m 153.25493,158.74138 c 0,0 9.8375,-2.40531 14.26478,-4.75493 4.07107,-2.16058 7.72081,-5.14673 10.97291,-8.41255 5.40277,-5.42557 9.36899,-12.11521 13.89901,-18.28818 2.12148,-2.8909 6.21798,-8.77832 6.21798,-8.77832 l 5.12069,4.75492 c 0,0 -5.25855,11.09845 -8.77832,16.0936 -3.48173,4.94117 -7.58567,9.48027 -12.0702,13.53325 -4.46899,4.03894 -9.17843,8.04601 -14.63054,10.60714 -4.44296,2.08708 -14.26478,3.65764 -14.26478,3.65764"
       id="path604-3" />
  </g>
</svg>
